<svg width="104" height="22" viewBox="0 0 104 22" fill="none" xmlns="http://www.w3.org/2000/svg">
<path d="M5.44238 21.268C5.27171 21.1827 5.03704 21.108 4.73838 21.044C4.43971 21.0013 4.17304 20.948 3.93838 20.884C3.46904 20.7133 3.11704 20.404 2.88238 19.956C2.66904 19.508 2.56238 18.964 2.56238 18.324C2.56238 17.4707 2.70104 16.5 2.97838 15.412C3.27704 14.324 3.65038 13.204 4.09838 12.052C4.56771 10.8787 5.05838 9.75867 5.57038 8.692C6.08238 7.62533 6.55171 6.676 6.97838 5.844C7.42638 5.012 7.76771 4.39333 8.00238 3.988C7.29838 4.09467 6.53038 4.26533 5.69838 4.5C4.88771 4.71333 4.19438 4.98 3.61838 5.3C3.04238 5.62 2.75438 6.004 2.75438 6.452C2.75438 6.87867 3.02104 7.29467 3.55438 7.7C3.72504 7.84933 3.81038 7.988 3.81038 8.116C3.81038 8.308 3.71438 8.42533 3.52238 8.468C3.45838 8.48933 3.36238 8.5 3.23438 8.5C2.85038 8.5 2.47704 8.35067 2.11438 8.052C1.77304 7.75333 1.48504 7.35867 1.25038 6.868C1.03704 6.356 0.930375 5.82267 0.930375 5.268C0.930375 4.45733 1.23971 3.65733 1.85838 2.868C2.47704 2.07867 3.56504 1.53467 5.12238 1.236C5.50638 1.15067 6.26371 1.06533 7.39438 0.979999C8.52504 0.873333 9.75171 0.819999 11.0744 0.819999C12.2477 0.819999 13.3784 0.883999 14.4664 1.012C15.5757 1.14 16.4824 1.364 17.1864 1.684C17.9117 2.004 18.2744 2.46267 18.2744 3.06C18.2744 3.20933 18.2637 3.39067 18.2424 3.604C18.221 3.81733 18.2104 3.988 18.2104 4.116L18.2104 4.18C18.2104 4.26533 18.1784 4.31867 18.1144 4.34C18.0504 4.36133 17.997 4.32933 17.9544 4.244C17.8477 4.07333 17.5384 3.93467 17.0264 3.828C16.5357 3.72133 15.9064 3.64667 15.1384 3.604C14.3917 3.56133 13.581 3.55067 12.7064 3.572C12.1944 4.36133 11.597 5.34267 10.9144 6.516C10.253 7.68933 9.58104 8.96933 8.89838 10.356C8.30104 11.5933 7.74638 12.852 7.23438 14.132C6.72238 15.3907 6.30638 16.5533 5.98638 17.62C5.68771 18.6653 5.53838 19.508 5.53838 20.148C5.53838 20.532 5.60238 20.8093 5.73038 20.98C5.77304 21.0227 5.79438 21.0867 5.79438 21.172C5.79438 21.3213 5.67704 21.3533 5.44238 21.268ZM13.6316 20.692C12.5863 20.692 11.8503 20.4573 11.4236 19.988C11.0183 19.4973 10.8156 18.8893 10.8156 18.164C10.8156 17.396 10.9543 16.5747 11.2316 15.7C11.5303 14.804 11.861 13.9827 12.2236 13.236C12.6076 12.468 12.9063 11.8813 13.1196 11.476C13.9943 9.85467 14.997 8.67067 16.1276 7.924C17.2796 7.17733 18.549 6.804 19.9356 6.804C20.4263 6.804 21.0023 6.82533 21.6636 6.868C22.325 6.91067 22.997 6.932 23.6796 6.932C24.021 6.932 24.3516 6.92133 24.6716 6.9C24.9916 6.87867 25.301 6.868 25.5996 6.868L25.7276 6.868C26.0903 6.868 26.2716 6.932 26.2716 7.06C26.2716 7.14533 26.1436 7.24133 25.8876 7.348C25.6103 7.45467 25.2796 7.81733 24.8956 8.436C24.5116 9.03333 24.117 9.75867 23.7116 10.612C23.3063 11.4653 22.9223 12.3293 22.5596 13.204C22.3676 13.6947 22.1116 14.356 21.7916 15.188C21.4716 15.9987 21.237 16.8307 21.0876 17.684C21.0663 17.8333 21.045 17.972 21.0236 18.1C21.0236 18.2067 21.0236 18.3133 21.0236 18.42C21.0236 18.9533 21.1623 19.22 21.4396 19.22C21.781 19.22 22.133 19.0387 22.4956 18.676C22.8583 18.3133 23.2103 17.876 23.5516 17.364C23.8503 16.916 24.149 16.4147 24.4476 15.86C24.7463 15.3053 25.013 14.7933 25.2476 14.324C25.4823 13.8333 25.653 13.492 25.7596 13.3C25.8236 13.172 25.909 13.108 26.0156 13.108C26.1436 13.108 26.261 13.204 26.3676 13.396C26.4743 13.5667 26.485 13.7373 26.3996 13.908C25.9943 14.6973 25.557 15.54 25.0876 16.436C24.6183 17.332 24.1063 18.1427 23.5516 18.868C22.613 20.084 21.525 20.692 20.2876 20.692C19.349 20.692 18.6556 20.404 18.2076 19.828C17.781 19.252 17.5676 18.5587 17.5676 17.748C17.5676 17.3853 17.5996 17.0333 17.6636 16.692C17.429 17.076 17.141 17.5773 16.7996 18.196C16.4583 18.7933 16.0636 19.3373 15.6156 19.828C15.189 20.3187 14.709 20.596 14.1756 20.66C14.0903 20.66 14.005 20.66 13.9196 20.66C13.8343 20.6813 13.7383 20.692 13.6316 20.692ZM14.8156 19.06C15.029 19.06 15.3063 18.868 15.6476 18.484C16.0103 18.1 16.373 17.62 16.7356 17.044C17.1196 16.4467 17.4503 15.8493 17.7276 15.252C17.7916 15.0813 17.941 14.7187 18.1756 14.164C18.4316 13.588 18.709 12.9267 19.0076 12.18C19.3276 11.412 19.6476 10.644 19.9676 9.876C20.2876 9.108 20.565 8.436 20.7996 7.86C20.821 7.796 20.8316 7.72133 20.8316 7.636C20.8316 7.508 20.7676 7.444 20.6396 7.444C20.5116 7.444 20.3623 7.49733 20.1916 7.604C20.021 7.68933 19.861 7.78533 19.7116 7.892C19.4343 8.10533 19.0716 8.55333 18.6236 9.236C18.197 9.89733 17.7383 10.676 17.2476 11.572C16.7783 12.468 16.3303 13.3853 15.9036 14.324C15.477 15.2413 15.125 16.084 14.8476 16.852C14.5916 17.5987 14.4636 18.164 14.4636 18.548C14.4636 18.8893 14.581 19.06 14.8156 19.06ZM28.4749 20.724C27.1735 20.724 26.0962 20.34 25.2429 19.572C24.3895 18.804 23.9629 17.7373 23.9629 16.372C23.9629 15.9027 24.0162 15.412 24.1229 14.9C24.2295 14.388 24.4002 13.9507 24.6349 13.588C24.8695 13.2253 25.1789 13.044 25.5629 13.044C25.7975 13.044 25.9682 13.1187 26.0749 13.268C26.3309 12.7773 26.6082 12.2867 26.9069 11.796C27.2055 11.3053 27.5042 10.804 27.8029 10.292C28.1442 9.73733 28.5389 9.12933 28.9869 8.468C29.4562 7.78533 29.9895 7.188 30.5869 6.676C31.1842 6.14267 31.8349 5.844 32.5389 5.78C32.6242 5.75867 32.7095 5.748 32.7949 5.748C32.9015 5.748 32.9975 5.748 33.0829 5.748C33.3175 5.748 33.5629 5.75866 33.8189 5.78C34.0749 5.80133 34.2669 5.82266 34.3949 5.844C34.4375 5.86533 34.4695 5.92933 34.4909 6.036C34.5122 6.14266 34.4589 6.196 34.3309 6.196C34.2455 6.196 34.0749 6.26 33.8189 6.388C33.5629 6.49467 33.4135 6.76133 33.3709 7.188C33.3282 8.68133 33.2322 10.1747 33.0829 11.668C32.9549 13.1613 32.7522 14.4093 32.4749 15.412C32.3469 15.924 32.1442 16.4787 31.8669 17.076C31.5895 17.6733 31.2589 18.2067 30.8749 18.676C30.4909 19.1453 30.0855 19.4653 29.6589 19.636C30.0855 19.636 30.5335 19.508 31.0029 19.252C31.4935 18.9747 31.9415 18.644 32.3469 18.26C32.7735 17.876 33.0935 17.5347 33.3069 17.236C33.7762 16.5747 34.2029 15.8813 34.5869 15.156C34.9922 14.4093 35.2909 13.8333 35.4829 13.428C35.5469 13.3213 35.6215 13.268 35.7069 13.268C35.8135 13.268 35.9095 13.332 35.9949 13.46C36.0802 13.588 36.1229 13.7267 36.1229 13.876C36.1229 13.9187 36.1122 13.9613 36.0909 14.004C36.0909 14.0467 36.0802 14.0893 36.0589 14.132C35.6749 14.9 35.2482 15.6787 34.7789 16.468C34.3309 17.236 33.8082 17.9507 33.2109 18.612C32.6135 19.252 31.9309 19.764 31.1629 20.148C30.3949 20.532 29.4989 20.724 28.4749 20.724ZM26.3949 18.708C26.6295 18.708 26.8642 18.6333 27.0989 18.484C27.3335 18.3347 27.5255 18.1 27.6749 17.78C27.9949 17.076 28.2829 16.2653 28.5389 15.348C28.7949 14.4307 29.0189 13.524 29.2109 12.628C29.4029 11.7107 29.5629 10.9 29.6909 10.196C29.8402 9.47067 29.9469 8.948 30.0109 8.628C29.6909 9.012 29.2962 9.556 28.8269 10.26C28.3789 10.964 27.9415 11.668 27.5149 12.372C27.1095 13.076 26.8002 13.6413 26.5869 14.068C26.6082 14.5587 26.4162 14.996 26.0109 15.38C25.6055 15.764 25.2535 16.1587 24.9549 16.564L24.9549 16.916C24.9549 17.0013 24.9549 17.108 24.9549 17.236C24.9762 17.364 24.9975 17.4813 25.0189 17.588C25.1255 17.9293 25.3069 18.2067 25.5629 18.42C25.8402 18.612 26.1175 18.708 26.3949 18.708ZM37.4241 20.756C36.6561 20.756 35.9628 20.5427 35.3441 20.116C34.7255 19.668 34.4161 18.9533 34.4161 17.972C34.4161 17.204 34.5655 16.2653 34.8641 15.156C35.1628 14.0467 35.5575 12.916 36.0481 11.764C36.5388 10.5907 37.0721 9.53467 37.6481 8.596L36.2721 8.596C36.1441 8.596 36.0801 8.54267 36.0801 8.436C36.0801 8.35067 36.1335 8.25467 36.2401 8.148C36.3468 8.02 36.4748 7.93466 36.6241 7.892C36.9655 7.78533 37.4028 7.59333 37.9361 7.316C38.4908 7.01733 39.0668 6.676 39.6641 6.292C40.2615 5.908 40.8268 5.524 41.3601 5.14C41.8935 4.756 42.3201 4.42533 42.6401 4.148C42.8321 3.97733 43.0348 3.86 43.2481 3.796C43.4828 3.732 43.7068 3.7 43.9201 3.7C44.2828 3.7 44.5601 3.764 44.7521 3.892C44.9441 4.02 44.9441 4.148 44.7521 4.276C44.5815 4.38266 44.3468 4.64933 44.0481 5.076C43.7495 5.50266 43.4401 5.972 43.1201 6.484C42.8215 6.996 42.5548 7.45466 42.3201 7.86L44.7521 7.86C44.7948 7.86 44.8161 7.892 44.8161 7.956C44.8161 8.06266 44.7735 8.20133 44.6881 8.372C44.6028 8.52133 44.5175 8.596 44.4321 8.596L41.9041 8.596C41.4775 9.34267 41.0081 10.196 40.4961 11.156C39.9841 12.116 39.4935 13.0973 39.0241 14.1C38.5761 15.0813 38.2028 15.9987 37.9041 16.852C37.6055 17.684 37.4561 18.3453 37.4561 18.836C37.4561 19.3693 37.7015 19.636 38.1921 19.636C38.7041 19.636 39.2801 19.3907 39.9201 18.9C40.4535 18.452 40.9548 17.8973 41.4241 17.236C41.8721 16.6173 42.2668 15.9773 42.6081 15.316C42.9708 14.6547 43.2695 14.0893 43.5041 13.62C43.5895 13.4707 43.7068 13.396 43.8561 13.396C44.0055 13.396 44.1228 13.46 44.2081 13.588C44.3148 13.6947 44.3255 13.8333 44.2401 14.004C43.9201 14.644 43.5148 15.3907 43.0241 16.244C42.5335 17.0973 42.0108 17.876 41.4561 18.58C41.0081 19.1347 40.5708 19.5613 40.1441 19.86C39.7388 20.1373 39.3015 20.3507 38.8321 20.5C38.3841 20.6707 37.9148 20.756 37.4241 20.756ZM47.1811 20.98C45.6238 20.98 44.4931 20.628 43.7891 19.924C43.1065 19.22 42.7651 18.292 42.7651 17.14C42.7651 16.2653 42.9465 15.3053 43.3091 14.26C43.5865 13.4067 43.9598 12.5427 44.4291 11.668C44.8985 10.772 45.4425 9.95066 46.0611 9.204C46.6798 8.436 47.3625 7.828 48.1091 7.38C48.8558 6.91066 49.6451 6.676 50.4771 6.676C51.5438 6.676 52.4078 6.84666 53.0691 7.188C53.7518 7.508 54.0931 8.04133 54.0931 8.788C54.0931 9.34266 53.8691 10.036 53.4211 10.868C52.8238 12.02 51.9491 12.9693 50.7971 13.716C49.6451 14.4627 48.3545 14.8893 46.9251 14.996C46.6051 15.8707 46.4131 16.5853 46.3491 17.14C46.3278 17.2467 46.3171 17.3533 46.3171 17.46C46.3171 17.5453 46.3171 17.6413 46.3171 17.748C46.3171 18.452 46.4771 18.964 46.7971 19.284C47.1171 19.5827 47.5118 19.732 47.9811 19.732C48.8558 19.732 49.6238 19.508 50.2851 19.06C50.9465 18.612 51.5225 18.0467 52.0131 17.364C52.5251 16.6813 52.9625 15.9987 53.3251 15.316C53.5385 14.932 53.7198 14.58 53.8691 14.26C54.0185 13.9187 54.1358 13.6733 54.2211 13.524C54.3278 13.3533 54.4451 13.268 54.5731 13.268C54.7011 13.268 54.8185 13.3427 54.9251 13.492C55.0318 13.62 55.0425 13.7693 54.9571 13.94C54.6798 14.4947 54.2958 15.2307 53.8051 16.148C53.3145 17.0653 52.7598 17.876 52.1411 18.58C51.4585 19.3907 50.7225 19.9987 49.9331 20.404C49.1651 20.788 48.2478 20.98 47.1811 20.98ZM47.3411 14.068C48.3011 13.7053 49.1438 13.0547 49.8691 12.116C50.6158 11.1773 51.1171 10.1427 51.3731 9.012C51.3945 8.90533 51.4051 8.80933 51.4051 8.724C51.4265 8.63866 51.4371 8.55333 51.4371 8.468C51.4371 8.04133 51.3091 7.828 51.0531 7.828C50.8398 7.828 50.6158 7.97733 50.3811 8.276C50.0398 8.68133 49.6771 9.236 49.2931 9.94C48.9091 10.6227 48.5678 11.2947 48.2691 11.956C47.9705 12.6173 47.7465 13.1187 47.5971 13.46L47.3411 14.068ZM66.5211 20.756C65.4331 20.756 64.6971 20.4573 64.3131 19.86C63.9291 19.2627 63.7371 18.5693 63.7371 17.78C63.7371 17.204 63.8011 16.628 63.9291 16.052C64.0571 15.476 64.1958 14.964 64.3451 14.516C64.4945 14.068 64.6011 13.7587 64.6651 13.588C64.9211 12.82 65.1878 12.084 65.4651 11.38C65.7638 10.6547 65.9878 10.1533 66.1371 9.876C66.0731 9.98266 65.8385 10.292 65.4331 10.804C65.0278 11.316 64.5478 11.956 63.9931 12.724C63.4598 13.4707 62.9265 14.2707 62.3931 15.124C61.8598 15.956 61.4118 16.7667 61.0491 17.556C60.7078 18.324 60.5371 18.9853 60.5371 19.54C60.5371 19.924 60.6225 20.2013 60.7931 20.372C60.8571 20.436 60.8891 20.4893 60.8891 20.532C60.8891 20.6387 60.7718 20.6707 60.5371 20.628C60.0465 20.5427 59.5665 20.4573 59.0971 20.372C58.6278 20.2653 58.2331 20.0627 57.9131 19.764C57.6145 19.444 57.4651 18.9213 57.4651 18.196C57.4651 17.62 57.6145 16.9267 57.9131 16.116C58.2118 15.284 58.5638 14.4307 58.9691 13.556C59.3745 12.6813 59.7265 11.8707 60.0251 11.124C60.0891 10.9533 60.1958 10.6973 60.3451 10.356C60.4945 9.99333 60.6438 9.62 60.7931 9.236C60.9638 8.83066 61.0918 8.47866 61.1771 8.18C61.2625 7.86 61.2838 7.64666 61.2411 7.54C61.1985 7.45466 61.1771 7.39066 61.1771 7.348C61.1771 7.092 61.3478 6.964 61.6891 6.964C62.0305 6.964 62.3718 7.01733 62.7131 7.124C63.0758 7.20933 63.3958 7.35866 63.6731 7.572C63.9718 7.78533 64.2065 8.04133 64.3771 8.34C64.5478 8.63866 64.6331 8.96933 64.6331 9.332C64.6331 9.56666 64.5798 9.844 64.4731 10.164C64.4305 10.3133 64.3345 10.516 64.1851 10.772C64.0571 11.0067 63.9185 11.2627 63.7691 11.54C63.6198 11.8173 63.4598 12.1053 63.2891 12.404C63.1398 12.7027 63.0865 12.8627 63.1291 12.884C63.6625 11.9453 64.2385 11.0707 64.8571 10.26C65.4971 9.428 66.0731 8.71333 66.5851 8.116C67.1185 7.51866 67.4705 7.08133 67.6411 6.804C67.8118 6.676 68.0891 6.612 68.4731 6.612C68.9211 6.612 69.3798 6.75066 69.8491 7.028C70.3185 7.30533 70.5531 7.80666 70.5531 8.532C70.5531 9.12933 70.3398 9.85466 69.9131 10.708C68.9958 12.4573 68.2918 14.036 67.8011 15.444C67.3105 16.8307 67.0651 17.8547 67.0651 18.516C67.0651 18.9853 67.1931 19.22 67.4491 19.22C67.7478 19.22 68.0891 19.028 68.4731 18.644C68.8571 18.26 69.2198 17.8013 69.5611 17.268C70.0305 16.5853 70.4571 15.86 70.8411 15.092C71.2465 14.324 71.5238 13.7907 71.6731 13.492C71.7371 13.364 71.8331 13.3 71.9611 13.3C72.0891 13.3 72.2065 13.3747 72.3131 13.524C72.4411 13.652 72.4625 13.8013 72.3771 13.972C72.2278 14.2707 72.0038 14.6867 71.7051 15.22C71.4278 15.7533 71.1078 16.3293 70.7451 16.948C70.3825 17.5453 69.9878 18.1213 69.5611 18.676C69.0918 19.316 68.6225 19.828 68.1531 20.212C67.6838 20.5747 67.1398 20.756 66.5211 20.756ZM75.1789 20.724C73.8135 20.724 72.7469 20.5 71.9789 20.052C71.2109 19.604 70.8269 18.74 70.8269 17.46C70.8269 16.564 70.9655 15.6253 71.2429 14.644C71.5415 13.6413 71.9575 12.6707 72.4909 11.732C73.0242 10.7933 73.6535 9.94 74.3789 9.172C75.1042 8.404 75.9042 7.796 76.7789 7.348C77.6535 6.87866 78.5815 6.644 79.5629 6.644C80.2029 6.644 80.8109 6.69733 81.3869 6.804C81.9629 6.91066 82.4322 7.156 82.7949 7.54C83.1575 7.90266 83.3389 8.47866 83.3389 9.268C83.3389 10.1 83.1149 11.1773 82.6669 12.5C82.2189 13.8227 81.6109 15.1133 80.8429 16.372C80.8002 16.5427 80.7789 16.7133 80.7789 16.884C80.7789 17.1187 80.8215 17.3533 80.9069 17.588C81.0135 17.8227 81.1949 17.94 81.4509 17.94C81.7922 17.94 82.1442 17.7053 82.5069 17.236C82.8909 16.7027 83.2855 16.0627 83.6909 15.316C84.0962 14.5693 84.4055 13.9613 84.6189 13.492C84.6615 13.364 84.7575 13.3 84.9069 13.3C85.0562 13.3 85.1842 13.364 85.2909 13.492C85.4189 13.62 85.4295 13.7693 85.3229 13.94C85.1522 14.26 84.9282 14.708 84.6509 15.284C84.3735 15.8387 84.0535 16.404 83.6909 16.98C83.3282 17.556 82.9335 18.0147 82.5069 18.356C82.1869 18.612 81.8455 18.74 81.4829 18.74C81.0562 18.74 80.7362 18.644 80.5229 18.452C80.3095 18.2387 80.1389 17.94 80.0109 17.556C79.3282 18.4733 78.5709 19.2307 77.7389 19.828C76.9069 20.4253 76.0535 20.724 75.1789 20.724ZM74.5709 19.732C74.8055 19.732 75.1255 19.4227 75.5309 18.804C75.9362 18.1853 76.3735 17.396 76.8429 16.436C77.3122 15.4547 77.7709 14.4627 78.2189 13.46C78.3042 13.2893 78.4429 12.98 78.6349 12.532C78.8269 12.0627 79.0295 11.5507 79.2429 10.996C79.4562 10.42 79.6375 9.86533 79.7869 9.332C79.9362 8.79866 80.0109 8.372 80.0109 8.052C80.0109 7.68933 79.9042 7.508 79.6909 7.508C79.4989 7.508 79.2535 7.7 78.9549 8.084C78.6562 8.44666 78.3255 8.92666 77.9629 9.524C77.6002 10.1213 77.2482 10.7613 76.9069 11.444C76.5655 12.1267 76.2669 12.7667 76.0109 13.364C75.7549 13.9613 75.4882 14.6333 75.2109 15.38C74.9335 16.1267 74.6989 16.8413 74.5069 17.524C74.3362 18.1853 74.2509 18.7187 74.2509 19.124C74.2509 19.5293 74.3575 19.732 74.5709 19.732ZM85.6516 20.66C84.8196 20.66 84.233 20.4253 83.8916 19.956C83.5716 19.4867 83.4116 18.9213 83.4116 18.26C83.4116 17.2787 83.561 16.34 83.8596 15.444C84.1583 14.5267 84.5103 13.6093 84.9156 12.692C85.3423 11.7747 85.737 10.8467 86.0996 9.908C86.2703 9.41733 86.4196 8.948 86.5476 8.5C86.6756 8.03066 86.7396 7.65733 86.7396 7.38C86.7396 7.16666 86.7076 7.01733 86.6436 6.932L86.6436 6.836C86.6436 6.72933 86.7183 6.68666 86.8676 6.708C87.0383 6.75066 87.1983 6.79333 87.3476 6.836C87.5183 6.85733 87.689 6.9 87.8596 6.964C88.6916 7.24133 89.257 7.61466 89.5556 8.084C89.8756 8.532 90.0356 9.00133 90.0356 9.492C90.0356 9.57733 90.025 9.66266 90.0036 9.748C90.0036 9.83333 89.993 9.91866 89.9716 10.004C89.929 10.196 89.7903 10.5907 89.5556 11.188C89.321 11.764 89.0543 12.3827 88.7556 13.044C88.4143 13.8333 88.0623 14.612 87.6996 15.38C87.337 16.1267 87.0063 16.9587 86.7076 17.876C86.6863 17.94 86.6756 18.036 86.6756 18.164C86.6756 18.4627 86.8036 18.612 87.0596 18.612C87.2943 18.612 87.5183 18.5053 87.7316 18.292C88.0516 17.972 88.4356 17.4813 88.8836 16.82C89.3316 16.1373 89.8863 15.1667 90.5476 13.908C90.9743 13.1187 91.305 12.404 91.5396 11.764C91.7956 11.1027 92.009 10.452 92.1796 9.812C92.2436 9.51333 92.297 9.22533 92.3396 8.948C92.3823 8.64933 92.4036 8.39333 92.4036 8.18C92.4036 7.924 92.3716 7.75333 92.3076 7.668C92.265 7.58266 92.2543 7.508 92.2756 7.444C92.297 7.38 92.361 7.35866 92.4676 7.38C93.0223 7.42266 93.5556 7.56133 94.0676 7.796C94.601 8.00933 95.0383 8.308 95.3796 8.692C95.721 9.076 95.8916 9.556 95.8916 10.132C95.8916 10.3453 95.8596 10.5693 95.7956 10.804C95.7316 11.0387 95.593 11.444 95.3796 12.02C95.1663 12.596 94.9103 13.2467 94.6116 13.972C94.3343 14.6973 94.0676 15.412 93.8116 16.116C93.5556 16.82 93.3636 17.428 93.2356 17.94C93.2143 18.0253 93.193 18.1 93.1716 18.164C93.1716 18.2067 93.1716 18.2493 93.1716 18.292C93.1716 18.548 93.257 18.676 93.4276 18.676C93.5556 18.676 93.737 18.58 93.9716 18.388C94.2916 18.0893 94.697 17.588 95.1876 16.884C95.6996 16.1587 96.2863 15.1667 96.9476 13.908C97.4383 12.9907 97.8223 12.084 98.0996 11.188C98.3983 10.292 98.5476 9.50266 98.5476 8.82C98.5476 8.052 98.345 7.476 97.9396 7.092C97.8543 7.00666 97.8116 6.964 97.8116 6.964C97.8116 6.92133 97.9396 6.88933 98.1956 6.868C98.3023 6.868 98.409 6.868 98.5156 6.868C98.6436 6.84666 98.7503 6.836 98.8356 6.836C99.9663 6.836 100.788 7.028 101.3 7.412C101.833 7.77466 102.1 8.212 102.1 8.724C102.1 8.83066 102.078 8.96933 102.036 9.14C101.908 9.69466 101.652 10.3773 101.268 11.188C100.905 11.9773 100.468 12.8093 99.9556 13.684C99.593 14.3027 99.337 14.8467 99.1876 15.316C99.0596 15.764 98.9956 16.1907 98.9956 16.596C98.9956 17.4067 99.2196 17.812 99.6676 17.812C100.03 17.812 100.393 17.5773 100.756 17.108C101.118 16.6813 101.481 16.1267 101.844 15.444C102.228 14.7613 102.548 14.1533 102.804 13.62C102.868 13.4707 102.985 13.396 103.156 13.396C103.284 13.396 103.401 13.46 103.508 13.588C103.614 13.6947 103.625 13.8333 103.54 14.004C103.433 14.2173 103.316 14.452 103.188 14.708C103.081 14.9427 102.953 15.188 102.804 15.444C102.59 15.828 102.334 16.276 102.036 16.788C101.737 17.3 101.374 17.7587 100.948 18.164C100.542 18.548 100.052 18.74 99.4756 18.74C99.0063 18.74 98.6543 18.548 98.4196 18.164C98.185 17.78 98.0676 17.3533 98.0676 16.884C98.0676 16.7987 98.0676 16.7133 98.0676 16.628C98.0676 16.5427 98.0783 16.4573 98.0996 16.372C97.545 17.14 96.9156 17.8547 96.2116 18.516C95.529 19.156 94.825 19.6787 94.0996 20.084C93.3956 20.468 92.713 20.66 92.0516 20.66C91.2836 20.66 90.729 20.4147 90.3876 19.924C90.0676 19.412 89.9076 18.7933 89.9076 18.068C89.9076 17.876 89.9183 17.684 89.9396 17.492C89.9823 17.2787 90.0143 17.076 90.0356 16.884C89.3103 17.972 88.585 18.8787 87.8596 19.604C87.1343 20.308 86.3983 20.66 85.6516 20.66Z" fill="#F72D57"/>
</svg>
